# xmcd
#
# Track frame offsets:
#	150
#	18527
#	36354
#	57715
#	76112
#	107149
#	123957
#	152690
#	171830
#	191396
#	212951
#	236923
#	248976
#	284947
#
# Disc length: 4007 seconds
#
# Revision: 0
# Processed by: cddbd v1.5.2PL0 Copyright (c) Steve Scherf et al.
# Submitted via: EZCDAudioConverter 2.1.7.1
#
DISCID=d00fa50e
DTITLE=V/A - Sofrito: International Soundclash
DYEAR=1900
DGENRE=
TTITLE0=Lord Shorty and Vibrations International - Vibrations Groove
TTITLE1=La Pesada - Cumbia Y Tambo (En La Lluvia)
TTITLE2=Midnight Groovers - O Ti Yo
TTITLE3=Les Difficiles De Pétion-Ville - Fe'm Confiance [Tropical Treats Edit]
TTITLE4=Owiny Sigoma Band - Nabed Nade Ei Piny Ka
TTITLE5=Mas Ka Klé - Lésé Yo Palé
TTITLE6=Kiland Et L'Orchestre Mabatalaï - Pour Chercher Le Magot
TTITLE7=Bell'a Njoh - Ebolo
TTITLE8=Concept Neuf - The Path [Sofrito Edit]
TTITLE9=Grupo Canalon De Timbiqui - La Zorra Y El Perol
TTITLE10=Sartana Et Son Groupe Mistrl - Information Par Le Mistral
TTITLE11=Luis Kalaff Y Sus Alegres Dominicanos - Agarralo Que Eso Es Tuyo
TTITLE12=Afro Festival Led By Fantastic Tchico Tchicaya - El Manicero Se Va
TTITLE13=Melodica Teens Band - Mwekuru Muthao
EXTD=
EXTT0=
EXTT1=
EXTT2=
EXTT3=
EXTT4=
EXTT5=
EXTT6=
EXTT7=
EXTT8=
EXTT9=
EXTT10=
EXTT11=
EXTT12=
EXTT13=
PLAYORDER=
